<svg width="35" height="35" viewBox="0 0 35 35" fill="none" xmlns="http://www.w3.org/2000/svg">
<path d="M17.5001 0.420807C8.06732 0.420807 0.420898 8.06723 0.420898 17.5C0.420898 26.9328 8.06732 34.5792 17.5001 34.5792C26.9329 34.5792 34.5793 26.9328 34.5793 17.5C34.5793 8.06723 26.9329 0.420807 17.5001 0.420807ZM23.1008 18.4516C22.4148 18.4402 21.7877 18.4602 20.9903 18.4257C20.8608 18.4198 18.784 18.4509 18.7903 18.4887C18.9412 19.4122 18.7244 20.3934 18.7374 21.3273C18.7451 21.8716 18.905 26.7955 18.8314 28.6119L14.7158 28.6496C14.6988 27.103 14.7743 25.5124 14.7073 23.4726C14.6936 23.0533 14.68 18.64 14.6311 18.4076C14.6311 18.4076 12.8122 18.4206 11.9619 18.4257C11.9619 18.4257 11.9505 16.797 11.9505 16.2461C11.9505 15.7048 11.9505 15.1642 11.9505 14.6229C11.9505 14.6229 14.0735 14.5052 14.6829 14.4523C14.6829 14.4523 14.7451 12.3862 14.8294 11.7169C14.9267 10.9525 14.9364 10.1799 15.3852 9.50357C16.2077 8.26555 17.0195 7.17442 18.5317 6.84549C19.1037 6.72043 22.8758 5.97895 23.0157 6.58908L22.9298 10.2624C21.9042 10.2624 20.6751 10.1585 19.6283 10.9358C19.0456 11.3695 18.8846 11.7306 18.8258 12.444C18.7907 12.8587 18.7825 14.5374 18.7825 14.5374C19.3353 14.6162 20.1534 14.5814 20.7476 14.5374C21.4188 14.4875 23.1419 14.6654 23.1419 14.6654C23.1411 15.7765 23.0967 18.3418 23.1008 18.4516Z" fill="#C4C4C4"/>
</svg>
