<svg width="35" height="35" viewBox="0 0 35 35" fill="none" xmlns="http://www.w3.org/2000/svg">
<path d="M17.6774 34.6719C8.22334 34.7061 0.444041 26.8379 0.676463 17.2061C0.895213 8.05273 8.4831 0.485348 17.9167 0.594723C27.2614 0.704098 34.9724 8.4834 34.7331 18.0811C34.5075 27.207 26.9812 34.7266 17.6774 34.6719ZM15.7224 26.5029C14.8884 26.2363 14.0407 26.0381 13.2614 25.6895C11.6755 24.9785 10.6706 23.748 10.3493 22.0186C10.1442 20.8975 10.2263 19.7695 10.363 18.6484C10.486 17.6572 10.7731 16.7344 11.5251 16.0166C11.5798 15.9619 11.5866 15.8047 11.5524 15.7227C11.1901 14.7314 11.2312 13.7402 11.5251 12.7354C11.614 12.4346 11.7575 12.4004 12.0173 12.4824C12.7009 12.6943 13.2546 13.1045 13.7263 13.624C13.9792 13.8975 14.2048 14.1982 14.444 14.4853C15.8659 13.5625 19.9333 13.5625 21.4235 14.4717C21.7106 14.1367 21.9841 13.7881 22.2917 13.4668C22.7497 12.9951 23.2829 12.6328 23.9323 12.4551C24.1442 12.3936 24.2604 12.4414 24.3356 12.667C24.6706 13.6582 24.7321 14.6494 24.3356 15.6406C24.2604 15.8389 24.2673 15.9687 24.4245 16.1191C24.8962 16.5703 25.1833 17.1377 25.3337 17.7734C25.6208 18.9561 25.6823 20.166 25.6003 21.3691C25.5114 22.6611 25.0261 23.7959 24.0759 24.7051C23.2761 25.4639 22.319 25.915 21.2663 26.1816C20.8835 26.2773 20.5007 26.3457 20.0905 26.4277C20.6169 27.2344 20.7468 28.1094 20.7263 29.0254C20.7058 30.0029 20.7194 30.9873 20.7194 31.9648C20.7194 32.0811 20.7263 32.2041 20.7331 32.3272C26.9743 31.1924 33.277 24.9785 32.5866 16.3721C31.9372 8.16211 24.6706 1.85937 16.2624 2.66601C8.40791 3.41797 2.10517 10.4248 2.81611 18.915C3.49287 26.9473 10.0007 31.7598 15.0935 32.3887C15.0935 31.8076 15.0935 31.2266 15.0935 30.6387C14.8132 30.6797 14.5603 30.7139 14.3142 30.7412C12.4821 30.9463 11.0261 30.126 10.2126 28.4922C9.76826 27.5967 9.29658 26.7012 8.42158 26.127C8.32588 26.0654 8.27119 25.9492 8.18916 25.8467C8.26435 25.792 8.29853 25.7647 8.33955 25.7441C8.39424 25.7236 8.44892 25.7168 8.50361 25.71C9.11885 25.6689 9.6999 25.7783 10.1579 26.209C10.4587 26.4893 10.7321 26.8242 10.9577 27.1729C11.819 28.5195 13.3024 29.0869 14.8132 28.6357C15.0183 28.5742 15.1345 28.4854 15.155 28.2461C15.196 27.6035 15.3737 26.9951 15.7224 26.5029Z" fill="#FFECF3"/>
</svg>
