<svg width="35" height="35" viewBox="0 0 35 35" fill="none" xmlns="http://www.w3.org/2000/svg">
<path d="M17.4994 20.8392C19.3396 20.8392 20.8399 19.3416 20.8399 17.5C20.8399 16.773 20.6021 16.1018 20.2077 15.5536C19.6003 14.7124 18.614 14.1608 17.5 14.1608C16.3854 14.1608 15.3998 14.7117 14.7917 15.5529C14.3967 16.1012 14.1608 16.7724 14.1602 17.4993C14.1595 19.3409 15.6584 20.8392 17.4994 20.8392Z" fill="#FFECF3"/>
<path d="M24.7916 13.415V10.616V10.1994L24.3724 10.2008L21.5747 10.2095L21.5861 13.4258L24.7916 13.415Z" fill="#FFECF3"/>
<path d="M17.5003 0.820038C8.30299 0.820038 0.820312 8.30271 0.820312 17.5C0.820312 26.6973 8.30299 34.18 17.5003 34.18C26.6976 34.18 34.1803 26.6973 34.1803 17.5C34.1803 8.30271 26.6976 0.820038 17.5003 0.820038ZM26.9865 15.5536V23.3205C26.9865 25.3435 25.3417 26.9876 23.3201 26.9876H11.6805C9.65816 26.9876 8.01408 25.3435 8.01408 23.3205V15.5536V11.6809C8.01408 9.65856 9.65816 8.01448 11.6805 8.01448H23.3194C25.3417 8.01448 26.9865 9.65856 26.9865 11.6809V15.5536Z" fill="#FFECF3"/>
<path d="M22.6886 17.5C22.6886 20.3602 20.3619 22.6889 17.5004 22.6889C14.6388 22.6889 12.3121 20.3602 12.3121 17.5C12.3121 16.812 12.4492 16.1542 12.6938 15.5536H9.86182V23.3205C9.86182 24.3242 10.6768 25.1372 11.6799 25.1372H23.3188C24.3219 25.1372 25.1369 24.3242 25.1369 23.3205V15.5536H22.3043C22.5495 16.1542 22.6886 16.812 22.6886 17.5Z" fill="#FFECF3"/>
</svg>
