<svg width="33" height="33" viewBox="0 0 33 33" fill="none" xmlns="http://www.w3.org/2000/svg">
<path d="M16.5 32.999C25.6127 32.999 33 25.6117 33 16.499C33 7.3863 25.6127 -0.00100708 16.5 -0.00100708C7.3873 -0.00100708 0 7.3863 0 16.499C0 25.6117 7.3873 32.999 16.5 32.999Z" fill="#C4C4C4"/>
<path d="M26.3586 17.8274V24.63H22.4146V18.2833C22.4146 16.6897 21.8452 15.6014 20.4172 15.6014C19.3274 15.6014 18.68 16.3341 18.3942 17.0435C18.2903 17.2971 18.2636 17.6492 18.2636 18.0048V24.6297H14.3193C14.3193 24.6297 14.3722 13.8805 14.3193 12.7678H18.2639V14.4488C18.2559 14.462 18.2447 14.4749 18.2377 14.4876H18.2639V14.4488C18.788 13.6423 19.7227 12.4893 21.8184 12.4893C24.4132 12.4893 26.3586 14.1846 26.3586 17.8274ZM10.1933 7.04996C8.8441 7.04996 7.96143 7.93558 7.96143 9.09915C7.96143 10.238 8.81851 11.1492 10.1415 11.1492H10.1671C11.5427 11.1492 12.3981 10.238 12.3981 9.09915C12.3719 7.93558 11.5427 7.04996 10.1933 7.04996ZM8.19585 24.63H12.1386V12.7678H8.19585V24.63Z" fill="#213152"/>
</svg>
