<svg width="35" height="35" viewBox="0 0 35 35" fill="none" xmlns="http://www.w3.org/2000/svg">
<path d="M17.5001 0.420807C8.06732 0.420807 0.420898 8.06723 0.420898 17.5C0.420898 26.9328 8.06732 34.5792 17.5001 34.5792C26.9329 34.5792 34.5793 26.9328 34.5793 17.5C34.5793 8.06723 26.9329 0.420807 17.5001 0.420807ZM26.6791 23.9813C25.9502 24.4371 22.9883 24.5729 22.2712 24.052C21.8779 23.7663 21.5183 23.4089 21.1768 23.0685C20.9378 22.8306 20.6666 22.7152 20.4612 22.4569C20.2936 22.2456 20.1785 21.9962 20.002 21.7876C19.7042 21.4375 19.2458 21.1397 18.8832 21.5674C18.337 22.2108 18.969 23.4744 18.2408 23.955C17.9966 24.1163 17.7502 24.163 17.445 24.14L16.769 24.1707C16.372 24.1785 15.743 24.1822 15.2912 24.1008C14.7873 24.0098 14.371 23.7345 13.9152 23.5325C13.0501 23.1488 12.2261 22.626 11.599 21.9019C9.89216 19.9298 7.59964 17.2177 6.70905 14.7383C6.5259 14.2288 6.04194 13.2198 6.50074 12.7829C7.12456 12.3296 10.1863 12.202 10.664 12.9028C10.8579 13.1877 10.9803 13.6043 11.1176 13.9273C11.2885 14.3298 11.381 14.7091 11.6482 15.0654C11.8846 15.3814 12.0589 15.6992 12.2417 16.0455C12.447 16.4344 12.6409 16.8074 12.8906 17.1652C13.0601 17.4086 13.5082 17.8929 13.7912 17.9288C14.4824 18.0173 14.4395 16.3378 14.388 15.9279C14.3388 15.5327 14.3262 15.1135 14.3392 14.7128C14.3503 14.3709 14.381 13.8892 14.1786 13.6102C13.8486 13.1551 13.1134 13.4955 13.056 12.8839C13.1774 12.7104 13.1519 12.5564 13.9625 12.2893C14.6011 12.0795 15.0137 12.0862 15.4348 12.1198C16.2932 12.1887 17.2034 11.9563 18.0322 12.2345C18.824 12.5013 18.7015 13.6265 18.6748 14.3006C18.639 15.2208 18.6774 16.1192 18.6748 17.0534C18.6737 17.4785 18.6567 17.8926 19.1755 17.8578C19.6616 17.8256 19.7112 17.4164 19.9432 17.0789C20.2658 16.6083 20.5622 16.131 20.8908 15.6622C21.3337 15.0284 21.4676 14.3162 21.8846 13.6668C22.0337 13.4348 22.1621 12.9405 22.3919 12.757C22.5658 12.6175 22.8962 12.6904 23.1067 12.6904H23.6073C23.9903 12.6904 24.381 12.6874 24.7747 12.7011C25.3415 12.7207 25.9764 12.5905 26.5385 12.67C28.9638 13.0123 23.49 18.1971 23.7749 19.1228C23.9718 19.7622 25.2205 20.4767 25.6712 21.0002C26.2695 21.6977 28.1113 23.084 26.6791 23.9813Z" fill="#FFECF3"/>
</svg>
