<svg width="35" height="35" viewBox="0 0 35 35" fill="none" xmlns="http://www.w3.org/2000/svg">
<path d="M17.5 34.4531C26.8516 34.4531 34.4531 26.8516 34.4531 17.5C34.4531 8.14844 26.8516 0.546875 17.5 0.546875C8.14844 0.546875 0.546875 8.14844 0.546875 17.5C0.546875 26.8516 8.14844 34.4531 17.5 34.4531ZM4.375 24.2539L11.2656 24.1992C12.0313 26.9609 13.3164 29.6406 15.0664 32.0469C10.3906 31.2812 6.48047 28.3008 4.375 24.2539ZM13.0156 12.8516H21.6016C22.2305 15.8594 22.2305 18.9492 21.6562 21.957L13.0156 22.0117C12.3867 18.9766 12.3867 15.8594 13.0156 12.8516ZM17.3086 31.418C15.5859 29.2031 14.3281 26.7695 13.5625 24.1992L21.082 24.1445C20.2891 26.7148 19.0312 29.1758 17.3086 31.418ZM19.4961 32.1289C21.3008 29.668 22.5859 26.9609 23.3516 24.1172L30.707 24.0625C28.5742 28.3555 24.418 31.4453 19.4961 32.1289ZM32.2656 17.5C32.2656 19.0312 32.0195 20.5078 31.6094 21.875L23.8711 21.9297C24.418 18.9219 24.3906 15.8594 23.8164 12.8516H31.5C31.9922 14.3008 32.2656 15.8867 32.2656 17.5ZM30.5703 10.6641H23.2969C22.5039 7.92969 21.2461 5.27734 19.4961 2.87109C24.3359 3.52734 28.4102 6.50781 30.5703 10.6641ZM21.0273 10.6641H13.5898C14.3828 8.14844 15.6133 5.76953 17.3086 3.58203C19.0039 5.76953 20.2344 8.14844 21.0273 10.6641ZM15.0664 2.95313C13.3437 5.33203 12.0859 7.92969 11.3203 10.6641H4.42969C6.53516 6.64453 10.418 3.71875 15.0664 2.95313ZM10.8008 12.8516C10.2266 15.8867 10.2266 18.9766 10.7734 22.0117L3.47266 22.0664C2.98047 20.6172 2.73438 19.0859 2.73438 17.5C2.73438 15.8867 3.00781 14.3008 3.5 12.8516H10.8008Z" fill="#CBF7FF"/>
</svg>
