<svg width="34" height="34" viewBox="0 0 34 34" fill="none" xmlns="http://www.w3.org/2000/svg">
<path d="M15.4148 0.050677C9.94947 0.416302 4.96402 3.52792 2.22183 8.28867C0.2566 11.6897 -0.432755 15.7421 0.298495 19.585C1.19732 24.3381 4.1147 28.4476 8.28892 30.8546C11.69 32.8198 15.7423 33.5092 19.5852 32.7779C22.2208 32.279 24.6506 31.1783 26.7454 29.5292C29.9027 27.046 32.0317 23.5383 32.7782 19.585C33.1552 17.6121 33.1552 15.4641 32.7782 13.4912C31.8793 8.73808 28.962 4.62861 24.7877 2.22158C21.9618 0.591497 18.6864 -0.166413 15.4148 0.050677ZM12.1166 6.22441C12.3565 7.11181 12.5622 7.85829 12.5736 7.88495C12.5888 7.90781 12.7793 7.2413 12.9963 6.3996C13.2134 5.5541 13.4039 4.80761 13.4229 4.73906L13.4572 4.61718H14.1085H14.7559L14.7293 4.72001C14.7178 4.78095 14.3712 5.92353 13.9637 7.26415L13.2249 9.70546V11.446V13.1865H12.5774H11.9299V11.4231V9.66357L11.7776 9.06562C11.6253 8.46767 11.2101 7.18036 10.6388 5.53886C10.4674 5.05136 10.3303 4.64384 10.3303 4.63242C10.3303 4.6248 10.635 4.61718 11.0083 4.61718H11.6862L12.1166 6.22441ZM17.0982 6.82997C17.3877 6.929 17.6238 7.10419 17.818 7.36699C18.1646 7.83925 18.2332 8.39911 18.2027 10.3872C18.1798 11.785 18.1494 12.0325 17.9627 12.4172C17.7419 12.8704 17.2544 13.2056 16.7402 13.2551C16.1422 13.316 15.7043 13.1865 15.3386 12.8399C15.0796 12.5924 14.9197 12.2839 14.8397 11.8611C14.7559 11.4155 14.7788 8.24296 14.8702 7.9497C15.0682 7.30224 15.5633 6.8414 16.1689 6.74999C16.4355 6.7081 16.8506 6.74238 17.0982 6.82997ZM20.3088 9.35888C20.3088 11.5069 20.3165 11.9525 20.3622 12.063C20.4726 12.322 20.7659 12.2725 21.0934 11.9411L21.2991 11.7316L21.3067 9.26747L21.3181 6.80712L21.9008 6.7957L22.4797 6.78427V9.9873V13.1865H21.8894H21.2991V12.8552V12.5276L21.082 12.7371C20.6745 13.1256 20.3774 13.2665 19.9813 13.2665C19.57 13.2665 19.3453 13.1065 19.2158 12.7181C19.1586 12.5391 19.151 12.2496 19.1358 9.70546C19.1282 8.15917 19.132 6.86806 19.1434 6.8414C19.1586 6.79951 19.2843 6.78808 19.7376 6.78808H20.3088V9.35888ZM20.9944 14.4053C22.5559 14.47 23.7213 14.5576 24.0984 14.6376C24.205 14.6604 24.4335 14.748 24.6126 14.8318C24.8753 14.9575 24.9934 15.0451 25.2448 15.3003C25.8085 15.8678 25.9836 16.4276 26.1398 18.1758C26.2502 19.4555 26.2426 22.6128 26.1169 23.8887C25.9608 25.5454 25.8046 26.0177 25.2257 26.5928C24.6963 27.1184 24.3878 27.2364 23.2795 27.3316C21.3829 27.4992 19.1053 27.5601 15.7195 27.5335C11.8385 27.4992 9.70191 27.3735 9.09634 27.1488C8.46793 26.9089 7.93472 26.3833 7.70621 25.7701C7.41676 25.0046 7.27965 23.4431 7.27965 20.956C7.27965 18.8766 7.35582 17.734 7.55386 16.7018C7.64527 16.222 7.72906 16.0049 7.95758 15.6545C8.24322 15.2165 8.64312 14.9042 9.13824 14.7214C9.62574 14.5462 11.5872 14.4053 14.3674 14.3519C15.4986 14.3291 20.0803 14.3672 20.9944 14.4053Z" fill="#C4C4C4"/>
<path d="M16.2106 7.85068C16.142 7.89258 16.062 7.9916 16.0201 8.08682C15.9516 8.24297 15.9478 8.38008 15.9363 9.88447C15.9249 11.7126 15.9402 11.8916 16.1572 12.0896C16.4124 12.3258 16.7514 12.2458 16.919 11.9106L17.0142 11.7202V9.9873V8.25439L16.9228 8.07158C16.8733 7.96494 16.7895 7.86592 16.7247 7.83545C16.5762 7.75547 16.3515 7.76308 16.2106 7.85068Z" fill="#C4C4C4"/>
<path d="M8.69238 17.1665V17.7568H9.35889H10.0254V21.394V25.0312H10.6729H11.3203V21.394V17.7568H12.0059H12.6914V17.1665V16.5762H10.6919H8.69238V17.1665Z" fill="#C4C4C4"/>
<path d="M17.1475 20.8037V25.0312H17.6997H18.252V24.7456C18.252 24.5894 18.2634 24.4599 18.2748 24.4599C18.29 24.4599 18.4157 24.5704 18.5566 24.7037C18.8651 24.9931 19.1241 25.1074 19.4821 25.1074C20.0077 25.1036 20.3162 24.7913 20.419 24.1553C20.4724 23.8239 20.4724 19.9544 20.419 19.6268C20.3048 18.9146 19.8744 18.5528 19.265 18.6671C18.9756 18.7204 18.789 18.8232 18.4995 19.0936L18.252 19.326V17.9511V16.5762H17.6997H17.1475V20.8037ZM19.0975 19.7487C19.1355 19.7754 19.2079 19.8706 19.2536 19.9658C19.3374 20.1334 19.3374 20.1715 19.3488 21.7635C19.3641 23.6068 19.345 23.7744 19.1203 23.9801C19.0137 24.0753 18.9832 24.0867 18.7966 24.0715C18.6519 24.06 18.5452 24.022 18.431 23.942L18.271 23.8277L18.2596 21.9006L18.252 19.9696L18.3853 19.863C18.629 19.6687 18.8956 19.6268 19.0975 19.7487Z" fill="#C4C4C4"/>
<path d="M22.7537 18.6747C22.331 18.7471 21.9158 19.0251 21.6835 19.3869C21.6188 19.4897 21.5273 19.7068 21.4816 19.8744C21.4017 20.1639 21.3979 20.24 21.394 21.8511C21.394 23.0317 21.4093 23.584 21.4397 23.7211C21.535 24.1172 21.6454 24.3457 21.8549 24.5742C22.2129 24.9589 22.5671 25.1074 23.1231 25.1074C23.683 25.1074 24.0144 24.9779 24.3305 24.6428C24.6847 24.2695 24.8027 23.9229 24.8027 23.2717V22.8603H24.2353H23.6716L23.6449 23.264C23.603 23.8925 23.485 24.0791 23.1193 24.0791C22.8718 24.0791 22.7271 23.9915 22.6204 23.7744C22.5442 23.6182 22.5366 23.5383 22.5252 22.8489L22.51 22.0986H23.6563H24.8027V21.2569C24.8027 20.0724 24.7266 19.6687 24.4219 19.2574C24.0791 18.8004 23.3936 18.5604 22.7537 18.6747ZM23.3936 19.7716C23.5992 19.9201 23.6411 20.0572 23.6525 20.6209L23.6678 21.1465H23.0927H22.5176V20.7466C22.5176 20.2629 22.5709 20.0001 22.6966 19.8515C22.8604 19.6573 23.1841 19.6192 23.3936 19.7716Z" fill="#C4C4C4"/>
<path d="M12.8438 21.3636C12.8438 22.8489 12.8628 24.1477 12.8818 24.3076C12.958 24.9018 13.1941 25.1227 13.7197 25.0998C14.0815 25.0846 14.352 24.9551 14.71 24.6237C14.8509 24.4904 14.9804 24.3838 14.9918 24.3838C15.0032 24.3838 15.0146 24.5285 15.0146 24.7075V25.0312H15.5669H16.1191V21.8701V18.709H15.5669H15.0146V21.1312V23.5497L14.8166 23.763C14.7062 23.8772 14.569 23.9953 14.5119 24.0258C14.4015 24.0829 14.1844 24.0943 14.112 24.0486C13.9939 23.9763 13.9863 23.782 13.9863 21.2569V18.709H13.415H12.8438V21.3636Z" fill="#C4C4C4"/>
</svg>
